<mxfile host="app.diagrams.net" modified="2022-09-27T03:30:28.190Z" agent="5.0 (Windows NT 10.0; Win64; x64) AppleWebKit/537.36 (KHTML, like Gecko) Chrome/105.0.0.0 Safari/537.36" etag="-t8e3wo4ngTmBLieW5ep" version="20.3.6" type="github">
  <diagram name="Page-1" id="e7e014a7-5840-1c2e-5031-d8a46d1fe8dd">
    <mxGraphModel dx="956" dy="923" grid="1" gridSize="10" guides="1" tooltips="1" connect="1" arrows="1" fold="1" page="1" pageScale="1" pageWidth="1169" pageHeight="1654" math="0" shadow="0">
      <root>
        <mxCell id="0" />
        <mxCell id="1" parent="0" />
        <mxCell id="2" value="Assistant Administrator" style="swimlane;whiteSpace=wrap;rounded=0;deletable=0;movable=0;expand=1;" parent="1" vertex="1">
          <mxGeometry x="158.5" y="127" width="285.5" height="863" as="geometry" />
        </mxCell>
        <mxCell id="5" value="" style="ellipse;shape=startState;rounded=0;whiteSpace=wrap;fillColor=#1F1F1F;" parent="2" vertex="1">
          <mxGeometry x="127.75" y="32" width="30" height="30" as="geometry" />
        </mxCell>
        <mxCell id="6" value="" style="edgeStyle=elbowEdgeStyle;elbow=horizontal;verticalAlign=bottom;endArrow=open;endSize=8;endFill=1;rounded=0;exitX=0.5;exitY=1;exitDx=0;exitDy=0;" parent="2" source="5" target="7" edge="1">
          <mxGeometry x="100" y="40" as="geometry">
            <mxPoint x="115" y="110" as="targetPoint" />
            <mxPoint x="140.5" y="90" as="sourcePoint" />
          </mxGeometry>
        </mxCell>
        <mxCell id="7" value="Select &quot;Update Seller&quot; option" style="rounded=0;whiteSpace=wrap;" parent="2" vertex="1">
          <mxGeometry x="87.75" y="82" width="110" height="50" as="geometry" />
        </mxCell>
        <mxCell id="bqYrFDz9AfAW0xV19m9E-46" value="Select option" style="whiteSpace=wrap;html=1;rounded=0;" parent="2" vertex="1">
          <mxGeometry x="82.75" y="152" width="120" height="28" as="geometry" />
        </mxCell>
        <mxCell id="VSnS6wqzOySut8PEu_Ir-9" value="Update seller details" style="whiteSpace=wrap;html=1;rounded=0;" vertex="1" parent="2">
          <mxGeometry x="82.75" y="302" width="120" height="28" as="geometry" />
        </mxCell>
        <mxCell id="VSnS6wqzOySut8PEu_Ir-27" value="Select option" style="whiteSpace=wrap;html=1;rounded=0;" vertex="1" parent="2">
          <mxGeometry x="82.75" y="689" width="120" height="23" as="geometry" />
        </mxCell>
        <mxCell id="3" value="System" style="swimlane;whiteSpace=wrap;rounded=0;deletable=0;movable=0;expand=1;" parent="1" vertex="1">
          <mxGeometry x="444.5" y="127" width="285.5" height="863" as="geometry" />
        </mxCell>
        <mxCell id="bqYrFDz9AfAW0xV19m9E-45" value="" style="edgeStyle=orthogonalEdgeStyle;rounded=0;orthogonalLoop=1;jettySize=auto;html=1;" parent="3" source="bqYrFDz9AfAW0xV19m9E-42" target="bqYrFDz9AfAW0xV19m9E-44" edge="1">
          <mxGeometry relative="1" as="geometry" />
        </mxCell>
        <mxCell id="bqYrFDz9AfAW0xV19m9E-42" value="Display &quot;Update Seller&quot; form" style="whiteSpace=wrap;html=1;rounded=0;" parent="3" vertex="1">
          <mxGeometry x="80.5" y="82" width="120" height="50" as="geometry" />
        </mxCell>
        <mxCell id="bqYrFDz9AfAW0xV19m9E-44" value="List all sellers" style="whiteSpace=wrap;html=1;rounded=0;" parent="3" vertex="1">
          <mxGeometry x="80.5" y="152" width="120" height="28" as="geometry" />
        </mxCell>
        <object label="[seller selected]" id="VSnS6wqzOySut8PEu_Ir-8">
          <mxCell style="edgeStyle=orthogonalEdgeStyle;rounded=0;orthogonalLoop=1;jettySize=auto;html=1;" edge="1" parent="3" source="bqYrFDz9AfAW0xV19m9E-48" target="VSnS6wqzOySut8PEu_Ir-7">
            <mxGeometry relative="1" as="geometry">
              <Array as="points">
                <mxPoint x="140" y="282" />
                <mxPoint x="140" y="282" />
              </Array>
            </mxGeometry>
          </mxCell>
        </object>
        <mxCell id="bqYrFDz9AfAW0xV19m9E-48" value="" style="rhombus;whiteSpace=wrap;html=1;rounded=0;" parent="3" vertex="1">
          <mxGeometry x="121.37" y="222" width="37.25" height="38" as="geometry" />
        </mxCell>
        <mxCell id="VSnS6wqzOySut8PEu_Ir-7" value="Display seller details" style="whiteSpace=wrap;html=1;rounded=0;" vertex="1" parent="3">
          <mxGeometry x="79.99" y="302" width="120" height="28" as="geometry" />
        </mxCell>
        <mxCell id="VSnS6wqzOySut8PEu_Ir-14" value="" style="edgeStyle=orthogonalEdgeStyle;rounded=0;orthogonalLoop=1;jettySize=auto;html=1;" edge="1" parent="3" source="VSnS6wqzOySut8PEu_Ir-11" target="VSnS6wqzOySut8PEu_Ir-13">
          <mxGeometry relative="1" as="geometry" />
        </mxCell>
        <mxCell id="VSnS6wqzOySut8PEu_Ir-11" value="" style="rhombus;whiteSpace=wrap;html=1;rounded=0;" vertex="1" parent="3">
          <mxGeometry x="124.12" y="372" width="37.25" height="38" as="geometry" />
        </mxCell>
        <mxCell id="VSnS6wqzOySut8PEu_Ir-16" value="" style="edgeStyle=orthogonalEdgeStyle;rounded=0;orthogonalLoop=1;jettySize=auto;html=1;entryX=0.5;entryY=0;entryDx=0;entryDy=0;" edge="1" parent="3" source="VSnS6wqzOySut8PEu_Ir-13" target="VSnS6wqzOySut8PEu_Ir-15">
          <mxGeometry relative="1" as="geometry" />
        </mxCell>
        <mxCell id="VSnS6wqzOySut8PEu_Ir-13" value="Validate details" style="whiteSpace=wrap;html=1;rounded=0;" vertex="1" parent="3">
          <mxGeometry x="82.75" y="442" width="120" height="31" as="geometry" />
        </mxCell>
        <mxCell id="VSnS6wqzOySut8PEu_Ir-18" value="[missing/incorrect details]" style="edgeStyle=orthogonalEdgeStyle;rounded=0;orthogonalLoop=1;jettySize=auto;html=1;" edge="1" parent="3" source="VSnS6wqzOySut8PEu_Ir-15" target="VSnS6wqzOySut8PEu_Ir-17">
          <mxGeometry relative="1" as="geometry" />
        </mxCell>
        <mxCell id="VSnS6wqzOySut8PEu_Ir-15" value="" style="rhombus;whiteSpace=wrap;html=1;rounded=0;" vertex="1" parent="3">
          <mxGeometry x="124.11999999999999" y="492" width="37.25" height="38" as="geometry" />
        </mxCell>
        <mxCell id="VSnS6wqzOySut8PEu_Ir-17" value="Display prompt for completion of all fields" style="whiteSpace=wrap;html=1;rounded=0;" vertex="1" parent="3">
          <mxGeometry x="82.74499999999999" y="572" width="120" height="60" as="geometry" />
        </mxCell>
        <mxCell id="VSnS6wqzOySut8PEu_Ir-25" value="Display prompt for confirmation" style="whiteSpace=wrap;html=1;rounded=0;" vertex="1" parent="3">
          <mxGeometry x="82.74499999999999" y="670" width="120" height="60" as="geometry" />
        </mxCell>
        <mxCell id="VSnS6wqzOySut8PEu_Ir-26" value="" style="edgeStyle=orthogonalEdgeStyle;rounded=0;orthogonalLoop=1;jettySize=auto;html=1;entryX=0.5;entryY=0;entryDx=0;entryDy=0;" edge="1" parent="3" source="VSnS6wqzOySut8PEu_Ir-15" target="VSnS6wqzOySut8PEu_Ir-25">
          <mxGeometry relative="1" as="geometry">
            <Array as="points">
              <mxPoint x="23" y="511" />
              <mxPoint x="23" y="653" />
              <mxPoint x="143" y="653" />
            </Array>
          </mxGeometry>
        </mxCell>
        <mxCell id="bqYrFDz9AfAW0xV19m9E-43" value="" style="edgeStyle=orthogonalEdgeStyle;rounded=0;orthogonalLoop=1;jettySize=auto;html=1;" parent="1" source="7" target="bqYrFDz9AfAW0xV19m9E-42" edge="1">
          <mxGeometry relative="1" as="geometry" />
        </mxCell>
        <mxCell id="bqYrFDz9AfAW0xV19m9E-47" value="" style="edgeStyle=orthogonalEdgeStyle;rounded=0;orthogonalLoop=1;jettySize=auto;html=1;" parent="1" source="bqYrFDz9AfAW0xV19m9E-44" target="bqYrFDz9AfAW0xV19m9E-46" edge="1">
          <mxGeometry relative="1" as="geometry" />
        </mxCell>
        <mxCell id="bqYrFDz9AfAW0xV19m9E-49" value="" style="edgeStyle=orthogonalEdgeStyle;rounded=0;orthogonalLoop=1;jettySize=auto;html=1;entryX=0.5;entryY=0;entryDx=0;entryDy=0;" parent="1" source="bqYrFDz9AfAW0xV19m9E-46" target="bqYrFDz9AfAW0xV19m9E-48" edge="1">
          <mxGeometry relative="1" as="geometry">
            <Array as="points">
              <mxPoint x="301" y="330" />
              <mxPoint x="585" y="330" />
            </Array>
          </mxGeometry>
        </mxCell>
        <mxCell id="VSnS6wqzOySut8PEu_Ir-10" value="" style="edgeStyle=orthogonalEdgeStyle;rounded=0;orthogonalLoop=1;jettySize=auto;html=1;" edge="1" parent="1" source="VSnS6wqzOySut8PEu_Ir-7" target="VSnS6wqzOySut8PEu_Ir-9">
          <mxGeometry relative="1" as="geometry" />
        </mxCell>
        <mxCell id="VSnS6wqzOySut8PEu_Ir-12" value="" style="edgeStyle=orthogonalEdgeStyle;rounded=0;orthogonalLoop=1;jettySize=auto;html=1;" edge="1" parent="1" source="VSnS6wqzOySut8PEu_Ir-9" target="VSnS6wqzOySut8PEu_Ir-11">
          <mxGeometry relative="1" as="geometry">
            <Array as="points">
              <mxPoint x="301" y="480" />
              <mxPoint x="587" y="480" />
            </Array>
          </mxGeometry>
        </mxCell>
        <mxCell id="VSnS6wqzOySut8PEu_Ir-28" value="" style="edgeStyle=orthogonalEdgeStyle;rounded=0;orthogonalLoop=1;jettySize=auto;html=1;" edge="1" parent="1" source="VSnS6wqzOySut8PEu_Ir-25" target="VSnS6wqzOySut8PEu_Ir-27">
          <mxGeometry relative="1" as="geometry" />
        </mxCell>
      </root>
    </mxGraphModel>
  </diagram>
</mxfile>
